HIERARCHY
ROOT Hips
{
	OFFSET 0.000000 0.000000 0.000000
	CHANNELS 6 Xposition Yposition Zposition Zrotation Yrotation Xrotation 
	JOINT LHipJoint
	{
		OFFSET 0.000000 0.000000 0.000000
		CHANNELS 3 Zrotation Yrotation Xrotation
		JOINT LeftUpLeg
		{
			OFFSET 1.363060 -1.794630 0.839290
			CHANNELS 3 Zrotation Yrotation Xrotation
			JOINT LeftLeg
			{
				OFFSET 2.448110 -6.726130 0.000000
				CHANNELS 3 Zrotation Yrotation Xrotation
				JOINT LeftFoot
				{
					OFFSET 2.562200 -7.039590 0.000000
					CHANNELS 3 Zrotation Yrotation Xrotation
					JOINT LeftToeBase
					{
						OFFSET 0.157640 -0.433110 2.322550
						CHANNELS 3 Zrotation Yrotation Xrotation
						End Site
						{
							OFFSET 0.000000 0.000000 0.000000
						}
					}
				}
			}
		}
	}
	JOINT RHipJoint
	{
		OFFSET 0.000000 0.000000 0.000000
		CHANNELS 3 Zrotation Yrotation Xrotation
		JOINT RightUpLeg
		{
			OFFSET -1.305520 -1.794630 0.839290
			CHANNELS 3 Zrotation Yrotation Xrotation
			JOINT RightLeg
			{
				OFFSET -2.542530 -6.985550 0.000000
				CHANNELS 3 Zrotation Yrotation Xrotation
				JOINT RightFoot
				{
					OFFSET -2.568260 -7.056230 0.000000
					CHANNELS 3 Zrotation Yrotation Xrotation
					JOINT RightToeBase
					{
						OFFSET -0.164730 -0.452590 2.363150
						CHANNELS 3 Zrotation Yrotation Xrotation
						End Site
						{
							OFFSET 0.000000 0.000000 0.000000
						}
					}
				}
			}
		}
	}
}
MOTION
Frames: 25
Frame Time: 0.008333
-2.252557 16.881650 0.835793 3.297745 64.652650 18.657443 -9.781837 0.306856 3.821305 0.458567 -4.998783 -35.259119 -1.716064 0.359637 19.972308 0.179887 -0.390855 -1.472461 0.107000 0.000000 -39.268100 10.548113 -1.847467 0.212318 13.647440 1.823256 -24.588364 -0.651633 -3.569974 59.041419 -0.785866 -2.664953 -3.744143 -0.238100 0.000000 -54.131800
-2.060317 16.875237 0.897077 4.321592 63.851439 19.708759 -9.745360 0.405564 3.664151 -0.599910 -4.247435 -34.993018 -1.821415 0.379360 20.709205 0.186622 -0.349689 -1.877757 0.108000 0.000000 -39.145400 10.775302 -1.685545 0.242180 13.258780 1.474259 -27.016107 -0.964596 -3.723851 62.238214 -1.136823 -4.873773 -3.977981 -0.386300 -0.000000 -51.173800
-1.869923 16.874223 0.958301 5.149812 62.994377 20.580602 -9.696762 0.499960 3.501760 -1.582745 -3.509563 -34.594431 -1.936012 0.376313 21.245202 0.189731 -0.364009 -2.481691 0.100300 0.000000 -39.077000 10.961961 -1.512878 0.298373 12.982043 1.289098 -29.394399 -1.207921 -3.868003 64.962887 -1.449999 -6.770539 -4.541876 -0.472899 -0.000000 -47.648100
-1.680621 16.878787 1.018980 5.768506 62.076860 21.243394 -9.642701 0.590841 3.331502 -2.475842 -2.777691 -34.037411 -2.054150 0.352888 21.583242 0.194691 -0.397399 -3.238024 0.087700 0.000001 -39.081601 11.104906 -1.339829 0.375438 12.822868 1.249578 -31.677858 -1.383880 -4.002059 67.175052 -1.707034 -8.256157 -5.390021 -0.471900 0.000000 -43.964500
-1.491887 16.888685 1.079352 6.215585 61.102372 21.721376 -9.584347 0.680042 3.153358 -3.286608 -2.067598 -33.296640 -2.170284 0.309606 21.711545 0.208624 -0.392413 -4.082904 0.074200 -0.000000 -39.161600 11.207961 -1.173443 0.465413 12.758038 1.322999 -33.834408 -1.493758 -4.124986 68.853283 -1.892614 -9.250691 -6.462569 -0.378399 0.000000 -40.398700
-1.302987 16.903615 1.138768 6.471273 60.079825 21.983302 -9.531516 0.767341 2.964613 -3.995602 -1.357273 -32.362565 -2.277686 0.250453 21.636068 0.233624 -0.327461 -4.952820 0.059400 0.000000 -39.322300 11.265953 -1.022256 0.562657 12.803197 1.492633 -35.817620 -1.537461 -4.231921 69.976543 -1.998522 -9.720713 -7.668921 -0.214400 0.000000 -37.193699
-1.113472 16.922918 1.197447 6.573996 59.026149 22.060701 -9.486493 0.854249 2.766868 -4.610007 -0.653758 -31.231575 -2.371586 0.177377 21.349339 0.271924 -0.169738 -5.778441 0.043100 0.000000 -39.558099 11.282439 -0.890736 0.660483 12.939982 1.725609 -37.603612 -1.515381 -4.319725 70.543613 -2.020109 -9.656040 -8.907211 -0.019100 0.000001 -34.570500
-0.922915 16.945714 1.255535 6.548969 57.963667 21.979418 -9.452885 0.941680 2.563041 -5.132557 0.044612 -29.920299 -2.448520 0.093586 20.855083 0.322247 0.089345 -6.500546 0.024100 0.000001 -39.862100 11.259181 -0.781928 0.755406 13.159760 1.995887 -39.179244 -1.430089 -4.384674 70.562156 -1.959796 -9.091325 -10.056868 0.159300 0.000000 -32.812201
-0.731309 16.971030 1.313478 6.442345 56.915415 21.783299 -9.429358 1.031301 2.354179 -5.580774 0.732369 -28.439781 -2.507828 0.001619 20.152156 0.381756 0.448572 -7.069346 0.002899 0.000000 -40.219499 11.203399 -0.694756 0.841508 13.437316 2.269781 -40.539329 -1.287572 -4.424916 70.053072 -1.825623 -8.095946 -11.000020 0.280200 -0.000000 -32.213600
-0.538409 16.997644 1.371553 6.269077 55.908519 21.500115 -9.419296 1.123338 2.145452 -5.956027 1.420177 -26.839870 -2.550367 -0.094257 19.267263 0.443850 0.871506 -7.459287 -0.018400 -0.000000 -40.615300 11.115989 -0.629034 0.921700 13.771745 2.533236 -41.700503 -1.097482 -4.437614 69.045192 -1.634406 -6.787222 -11.633589 0.323099 0.000000 -33.025800
-0.344237 17.024324 1.430310 6.057570 54.967577 21.171260 -9.422070 1.218496 1.940947 -6.270894 2.112637 -25.169550 -2.579825 -0.190839 18.229141 0.501501 1.313051 -7.662898 -0.035900 -0.000000 -41.029300 11.001403 -0.582117 0.998476 14.150522 2.771879 -42.691334 -0.870670 -4.422469 67.583031 -1.407412 -5.300481 -11.920757 0.296800 0.000000 -35.143400
-0.149353 17.049944 1.490162 5.834110 54.109816 20.824918 -9.435606 1.317091 1.738299 -6.539649 2.824700 -23.460318 -2.602002 -0.285239 17.066840 0.546983 1.716650 -7.690172 -0.045400 0.000001 -41.443900 10.865742 -0.550033 1.070921 14.557232 2.973706 -43.528628 -0.617376 -4.380531 65.716122 -1.167853 -3.776821 -11.880471 0.228500 -0.000000 -38.234300
0.045945 17.073370 1.551541 5.612864 53.348469 20.484944 -9.458989 1.418805 1.536419 -6.770156 3.575441 -21.757120 -2.623424 -0.374787 15.823269 0.572676 2.017727 -7.569774 -0.044900 0.000000 -41.850600 10.712567 -0.529657 1.143049 14.981416 3.142480 -44.238823 -0.345562 -4.313003 63.500236 -0.938505 -2.347620 -11.588442 0.150099 -0.000000 -41.662700
0.241328 17.093592 1.614951 5.409344 52.693058 20.178306 -9.490464 1.523407 1.336145 -6.971459 4.378135 -20.107507 -2.650714 -0.458100 14.545262 0.572899 2.158853 -7.341995 -0.035400 -0.000000 -42.250300 10.545201 -0.518487 1.223433 15.407138 3.293209 -44.853779 -0.060657 -4.221043 60.992938 -0.737934 -1.116621 -11.152241 0.084700 0.000000 -44.617500
0.436358 17.109726 1.680713 5.235773 52.142391 19.920961 -9.527117 1.629924 1.132928 -7.152288 5.245994 -18.535654 -2.689584 -0.534422 13.271687 0.544595 2.097846 -7.050090 -0.020900 0.000000 -42.657600 10.368369 -0.512704 1.317629 15.810272 3.444701 -45.387434 0.232524 -4.104357 58.236038 -0.578377 -0.155501 -10.648946 0.040600 0.000001 -46.688900
0.630703 17.121136 1.749035 5.103107 51.691913 19.724938 -9.566139 1.737344 0.923891 -7.319626 6.182597 -17.056700 -2.743615 -0.603924 12.036257 0.488095 1.814334 -6.735217 -0.006600 -0.000000 -43.096500 10.186368 -0.509386 1.433342 16.164024 3.619008 -45.849852 0.530086 -3.961034 55.256856 -0.466228 0.499452 -10.129851 0.015200 0.000001 -47.727800
0.824085 17.127296 1.819824 5.014866 51.329033 19.588746 -9.604961 1.843839 0.702588 -7.475958 7.187182 -15.663051 -2.813778 -0.666749 10.861100 0.406841 1.310656 -6.431252 0.003500 -0.000000 -43.600301 10.003999 -0.504640 1.572667 16.442998 3.831040 -46.234314 0.829831 -3.787682 52.069930 -0.401986 0.851963 -9.628180 0.000100 0.000000 -47.726401
1.016466 17.127811 1.893156 4.977875 51.044193 19.518323 -9.640760 1.948322 0.469681 -7.625046 8.236680 -14.349161 -2.898199 -0.724102 9.762013 0.307782 0.618254 -6.162681 0.007500 -0.000000 -44.200300 9.825683 -0.495860 1.741057 16.622820 4.090713 -46.545040 1.130390 -3.579761 48.683622 -0.381612 0.938462 -9.162047 -0.014599 0.000000 -46.726200
1.207913 17.122483 1.968910 4.992980 50.824987 19.508044 -9.671205 2.049477 0.224238 -7.766651 9.302328 -13.090279 -2.992499 -0.776900 8.741547 0.199422 -0.211509 -5.941818 0.006500 -0.000000 -44.924200 9.656380 -0.479761 1.937819 16.685746 4.394039 -46.774265 1.431197 -3.331743 45.099976 -0.396485 0.822256 -8.733464 -0.036900 -0.000001 -44.836600
1.398659 17.111227 2.047176 5.063641 50.666330 19.559629 -9.694480 2.147161 -0.027106 -7.902369 10.340848 -11.873022 -3.090853 -0.826382 7.801664 0.090732 -1.112563 -5.772096 0.003000 0.000001 -45.787700 9.500182 -0.455173 2.165711 16.621418 4.729107 -46.927035 1.731109 -3.037445 41.316663 -0.434749 0.577411 -8.322609 -0.071800 -0.000000 -42.294900
1.589004 17.094106 2.127868 5.187150 50.560705 19.664547 -9.709058 2.240881 -0.281108 -8.030804 11.312090 -10.669438 -3.186687 -0.872985 6.933235 -0.010651 -2.015163 -5.646171 0.000100 0.000000 -46.793400 9.362317 -0.419357 2.419074 16.429409 5.068850 -46.997453 2.028770 -2.691155 37.331482 -0.480984 0.285010 -7.897445 -0.120400 -0.000000 -39.404000
1.779148 17.071334 2.210993 5.364385 50.506088 19.816114 -9.713707 2.331110 -0.531617 -8.152794 12.176295 -9.456690 -3.273858 -0.916758 6.127458 -0.099086 -2.853290 -5.550421 -0.000999 -0.000000 -47.924500 9.248362 -0.370142 2.690707 16.117107 5.376069 -46.981524 2.321322 -2.288685 33.146192 -0.517957 0.020170 -7.412924 -0.181000 0.000000 -36.556299
1.969334 17.043300 2.296656 5.598337 50.503846 20.008234 -9.707180 2.418714 -0.771684 -8.271291 12.899390 -8.216134 -3.347427 -0.957272 5.376457 -0.171372 -3.572947 -5.467605 -0.000200 0.000000 -49.145200 9.164544 -0.304899 2.969681 15.698947 5.605113 -46.876424 2.604120 -1.829428 28.773589 -0.528113 -0.153013 -6.817375 -0.249200 0.000001 -34.191299
2.159681 17.010429 2.385043 5.895183 50.557481 20.235434 -9.688163 2.504956 -0.994490 -8.391445 13.457837 -6.934264 -3.404290 -0.993456 4.677030 -0.226689 -4.138942 -5.379835 0.000600 -0.000000 -50.406100 9.117211 -0.220321 3.240715 15.196034 5.705320 -46.680801 2.870744 -1.318781 24.248634 -0.496053 -0.184081 -6.066892 -0.317399 0.000000 -32.707000
2.350282 16.973282 2.476401 6.262204 50.672311 20.492539 -9.655667 2.591223 -1.194045 -8.518539 13.843343 -5.606552 -3.443566 -1.023547 4.034875 -0.266358 -4.540887 -5.271701 -0.000400 -0.000000 -51.653900 9.111103 -0.113061 3.485081 14.637172 5.627236 -46.399510 3.114137 -0.770355 19.639690 -0.411099 -0.034704 -5.142820 -0.373400 0.000000 -32.346300
